<svg width="272" height="147" xmlns="http://www.w3.org/2000/svg">

 <g>
  <title>Layer 1</title>
  <text font-weight="bold" font-style="normal" xml:space="preserve" text-anchor="start" font-family="'Cabin'" font-size="72" id="svg_1" y="128.24988" x="0.00002" stroke-width="0" stroke="#000" fill="#007fff">dpndncy</text>
  <path stroke="#000" stroke-width="0" id="svg_2" d="m214.10369,0c-29.63945,0 -53.66654,18.02134 -53.66654,40.2514c0,7.59218 2.84053,14.69321 7.72829,20.7529l-7.72829,16.94227l21.5163,-5.51862c8.96689,5.04489 20.07521,8.0718 32.15023,8.0718c29.63935,0 53.66719,-18.02145 53.66719,-40.24835s-24.02784,-40.2514 -53.66719,-40.2514zm3.3274,63.0078l-7.54764,0l0,-7.24154l7.54764,0l0,7.24154zm-0.36778,-12.57596l-6.81206,0l-0.67417,-30.98629l8.09971,0l-0.61348,30.98629l0,0z" fill="#ffcc00"/>
 </g>
</svg>